HIERARCHY
ROOT Model_Hips
{
	OFFSET 0.000000 96.915077 0.000000
	CHANNELS 6 Xposition Yposition Zposition Xrotation Yrotation Zrotation
	JOINT Model_Spine
	{
		OFFSET 0.000000 11.137703 -1.289900
		CHANNELS 3 Xrotation Yrotation Zrotation
		JOINT Model_Spine1
		{
			OFFSET 0.000000 12.993942 -1.504922
			CHANNELS 3 Xrotation Yrotation Zrotation
			JOINT Model_Spine2
			{
				OFFSET 0.000000 14.850220 -1.719911
				CHANNELS 3 Xrotation Yrotation Zrotation
				JOINT Model_Neck
				{
					OFFSET 0.000000 16.706543 -1.934903
					CHANNELS 3 Xrotation Yrotation Zrotation
					JOINT Model_Head
					{
						OFFSET 0.000000 10.471298 2.002100
						CHANNELS 3 Xrotation Yrotation Zrotation
						JOINT Model_HeadTop_End
						{
							OFFSET 0.000000 20.842606 3.985100
							CHANNELS 3 Xrotation Yrotation Zrotation
							End Site
							{
								OFFSET 0.000000 21.220154 0.000000
							}
						}
					}
				}
				JOINT Model_LeftShoulder
				{
					OFFSET 7.008500 14.768600 -1.919946
					CHANNELS 3 Xrotation Yrotation Zrotation
					JOINT Model_LeftArm
					{
						OFFSET 14.126271 -3.718048 0.029937
						CHANNELS 3 Xrotation Yrotation Zrotation
						JOINT Model_LeftForeArm
						{
							OFFSET 28.282801 0.000000 0.000000
							CHANNELS 3 Xrotation Yrotation Zrotation
							JOINT Model_LeftHand
							{
								OFFSET 26.204689 0.000000 0.000000
								CHANNELS 3 Xrotation Yrotation Zrotation
								End Site
								{
									OFFSET 26.204704 0.000000 0.000000
								}
							}
						}
					}
				}
				JOINT Model_RightShoulder
				{
					OFFSET -7.008500 14.768555 -1.949840
					CHANNELS 3 Xrotation Yrotation Zrotation
					JOINT Model_RightArm
					{
						OFFSET -14.126281 -3.718018 -0.029932
						CHANNELS 3 Xrotation Yrotation Zrotation
						JOINT Model_RightForeArm
						{
							OFFSET -28.283798 0.000000 -0.000001
							CHANNELS 3 Xrotation Yrotation Zrotation
							JOINT Model_RightHand
							{
								OFFSET -26.204193 0.000000 -0.000001
								CHANNELS 3 Xrotation Yrotation Zrotation
								End Site
								{
									OFFSET -26.204208 0.000000 -0.000001
								}
							}
						}
					}
				}
			}
		}
	}
	JOINT Model_LeftUpLeg
	{
		OFFSET 8.327700 -6.193199 -0.402800
		CHANNELS 3 Xrotation Yrotation Zrotation
		JOINT Model_LeftLeg
		{
			OFFSET 0.735802 -42.108742 -0.610721
			CHANNELS 3 Xrotation Yrotation Zrotation
			JOINT Model_LeftFoot
			{
				OFFSET -0.735806 -36.833748 -0.172876
				CHANNELS 3 Xrotation Yrotation Zrotation
				JOINT Model_LeftToeBase
				{
					OFFSET -0.565857 -11.977769 16.297714
					CHANNELS 3 Xrotation Yrotation Zrotation
					JOINT Model_LeftToe_End
					{
						OFFSET -0.111712 -0.312793 7.857784
						CHANNELS 3 Xrotation Yrotation Zrotation
						End Site
						{
							OFFSET -0.111712 -0.312793 7.857784
						}
					}
				}
			}
		}
	}
	JOINT Model_RightUpLeg
	{
		OFFSET -8.327700 -6.193199 -0.516500
		CHANNELS 3 Xrotation Yrotation Zrotation
		JOINT Model_RightLeg
		{
			OFFSET -0.735785 -42.108738 -0.434061
			CHANNELS 3 Xrotation Yrotation Zrotation
			JOINT Model_RightFoot
			{
				OFFSET 0.735776 -36.833748 -0.021630
				CHANNELS 3 Xrotation Yrotation Zrotation
				JOINT Model_RightToeBase
				{
					OFFSET 0.565817 -11.977745 15.903093
					CHANNELS 3 Xrotation Yrotation Zrotation
					JOINT Model_RightToe_End
					{
						OFFSET 0.111702 -0.312791 7.811342
						CHANNELS 3 Xrotation Yrotation Zrotation
						End Site
						{
							OFFSET 0.111702 -0.312791 7.811342
						}
					}
				}
			}
		}
	}
}
MOTION
Frames: 9
Frame Time: 0.016667
-0.966163 86.190506 1.163520 9.484997 0.529816 5.862450 3.560440 -1.590944 2.411293 2.407943 -1.183772 0.526363 2.407203 -1.190147 0.519236 -4.414680 0.767051 -3.985763 -4.429407 0.704614 -3.983293 -0.000000 -0.000000 -0.000000 0.795665 -1.218631 -24.323391 19.706989 -33.821191 -42.250976 -0.000018 -18.720625 -0.000014 0.000001 0.000000 -0.000000 0.457651 16.050250 11.103122 10.021418 6.506588 62.372154 0.000015 50.504331 -0.000002 -0.000001 0.000002 0.000000 -20.035189 17.369205 9.342500 107.032657 9.118931 0.656065 14.267204 12.579592 29.633390 -54.300373 0.000005 -0.000002 0.000001 0.000001 0.000001 -23.379166 -12.858487 19.725147 37.763891 -10.095234 -0.437126 -23.299244 6.388959 -26.585955 -8.472588 -0.000000 -0.000002 0.000001 -0.000001 -0.000000 
-0.279433 85.386192 8.325177 9.857689 -1.310945 5.761654 3.727230 0.333979 2.396924 2.519468 -0.281562 0.664953 2.515876 -0.289343 0.678476 -5.074442 0.504488 -4.131663 -5.080256 0.446147 -4.133764 0.000000 -0.000000 0.000000 0.834443 -0.946522 -23.763673 24.165324 -31.176077 -42.616088 0.000001 -17.982899 -0.000002 -0.000002 -0.000000 -0.000001 0.452701 16.775021 11.115305 4.802756 8.877715 62.101193 0.000038 55.729689 -0.000037 0.000001 0.000000 -0.000001 -30.593520 13.149951 12.400702 113.731413 7.855333 0.392043 13.526816 8.275584 29.648475 -49.234196 -0.000006 0.000003 0.000001 -0.000001 0.000001 -18.996315 -10.947054 20.498902 40.311657 -10.897787 -0.418049 -30.252219 7.792717 -26.527647 -10.541733 -0.000001 0.000005 0.000001 -0.000001 0.000000 
0.395556 84.835793 15.386528 10.261048 -3.184392 6.339537 4.162049 2.209127 1.958553 2.777946 0.640714 0.650118 2.770640 0.632908 0.687190 -5.898413 0.261234 -4.427013 -5.894990 0.198362 -4.438030 -0.000000 0.000000 -0.000000 0.933311 -0.075573 -22.513562 30.464969 -28.468182 -41.439810 -0.000002 -23.644469 -0.000011 -0.000000 -0.000001 -0.000000 0.607949 18.296656 9.787027 -0.953030 10.624639 61.927672 0.000000 61.636802 0.000018 -0.000000 -0.000003 0.000000 -41.827713 8.002815 14.328347 116.780279 8.830297 0.388750 13.490850 5.383733 29.615956 -33.866062 -0.000000 0.000004 -0.000001 0.000001 0.000003 -14.143119 -8.914154 19.674510 40.905317 -10.346831 -0.320390 -34.825208 8.252236 -24.845954 -12.187722 -0.000000 0.000002 0.000000 0.000000 0.000001 
1.009563 84.503830 22.746418 10.597217 -4.234723 7.742401 4.456315 3.794397 1.111698 2.968514 1.468383 0.417227 2.959024 1.464508 0.479434 -6.344760 -0.010147 -4.961383 -6.331332 -0.089399 -4.982238 0.000000 0.000000 -0.000000 1.019952 1.004986 -20.881031 37.597070 -26.674938 -39.315139 -0.000015 -31.132668 -0.000001 0.000002 0.000001 -0.000000 1.035151 20.029630 6.834408 -6.135065 11.287051 62.349382 0.000067 68.215633 -0.000052 -0.000003 -0.000001 0.000002 -51.801036 3.226192 14.386863 115.225715 10.617970 0.507400 15.813626 4.000090 29.586423 -11.318019 0.000002 -0.000004 0.000001 -0.000000 0.000001 -8.141625 -7.902211 16.980429 39.208264 -8.366431 -0.136739 -37.555501 8.333409 -22.934751 -13.979354 -0.000001 0.000002 0.000001 -0.000001 0.000000 
1.461681 84.479393 30.690073 10.567356 -4.081008 10.121168 4.496469 5.188484 -0.469421 2.977983 2.192189 -0.025252 2.970538 2.195764 0.059178 -6.128809 -0.384791 -5.737766 -6.102400 -0.490614 -5.763814 0.000000 -0.000000 -0.000000 1.008131 1.437511 -19.213373 44.868715 -25.271352 -36.443844 0.000009 -38.161759 0.000006 0.000003 -0.000001 -0.000001 1.684495 21.076878 2.819535 -9.445823 11.337258 63.179694 0.000148 75.282980 -0.000144 0.000001 -0.000001 -0.000000 -59.145408 0.591744 12.354336 109.425259 9.761209 0.665826 16.528914 5.333635 20.922500 -1.397195 0.000012 -0.000003 0.000000 0.000002 0.000000 -0.225950 -8.474199 12.693538 34.017679 -5.297654 0.131182 -37.530667 8.081809 -21.417675 -15.264940 0.000007 0.000002 -0.000000 0.000002 0.000000 
1.659941 84.784149 39.029835 10.093837 -3.001188 13.235859 4.542501 6.620922 -2.915829 2.916458 2.876586 -0.633131 2.916672 2.890008 -0.527821 -5.427637 -0.907409 -6.607807 -5.382765 -1.045076 -6.630956 -0.000000 0.000001 -0.000000 0.899516 0.742970 -17.573573 50.913296 -23.495922 -33.374295 -0.000001 -43.981507 0.000011 -0.000000 0.000001 -0.000001 2.148140 21.036189 -0.742197 -10.209956 11.606162 63.284906 0.000014 82.874353 -0.000008 0.000001 0.000001 -0.000001 -63.207370 0.316047 8.924925 100.401267 8.248778 0.861999 12.069883 7.668448 11.292980 -3.814823 0.000013 -0.000002 0.000001 0.000000 -0.000001 9.227622 -10.685552 8.150803 24.975801 -2.260520 0.255861 -33.112815 6.951859 -19.782132 -17.194048 0.000003 0.000001 0.000000 0.000000 0.000000 
1.791895 84.864037 47.059017 9.648926 -1.747179 17.015606 4.947909 8.186934 -6.422275 2.984859 3.482186 -1.289315 2.993271 3.513477 -1.151186 -4.714715 -1.525885 -7.340131 -4.649440 -1.699354 -7.350619 -0.000000 0.000000 0.000000 0.776974 -0.550847 -15.757906 54.654030 -20.620013 -30.719240 -0.000021 -50.433751 -0.000009 -0.000002 -0.000001 -0.000001 1.498197 20.260658 -0.647627 -8.721195 12.182974 59.674017 -0.000049 92.006063 -0.000050 -0.000001 0.000001 0.000002 -64.982727 1.965684 4.673333 89.091922 7.544740 1.025938 5.509730 9.958857 6.059796 -2.562551 0.000011 0.000006 -0.000003 -0.000002 -0.000001 14.960653 -13.911324 3.324541 20.954136 -1.222806 0.261441 -26.748054 5.140313 -16.866951 -26.847862 -0.000005 0.000000 0.000001 0.000000 0.000000 
1.929985 84.745262 54.812668 9.758221 -1.002643 20.131566 5.414367 9.889486 -9.631181 3.065164 3.980528 -1.779112 3.069392 4.042678 -1.604259 -4.228225 -2.181266 -7.752824 -4.146841 -2.377508 -7.745316 0.000000 0.000000 0.000000 0.708299 -1.368599 -13.628252 55.256797 -18.203371 -29.579022 -0.000003 -55.396864 0.000019 0.000002 0.000000 0.000001 1.094762 19.221708 -0.622272 -7.168387 12.339249 56.479732 0.000018 100.860044 -0.000010 -0.000001 -0.000001 -0.000002 -64.871436 3.794277 0.937569 74.937106 7.945447 1.023868 1.888918 9.738940 5.097960 3.555170 -0.000006 0.000011 0.000001 0.000000 -0.000001 15.980966 -15.960125 -1.025306 23.522724 -2.255626 0.275594 -17.640352 3.339318 -14.635060 -33.480525 -0.027545 0.471743 -0.000000 -0.000000 -0.000000 
2.106079 84.728661 63.082756 10.241017 -0.745628 20.698846 5.052693 11.344329 -10.412493 2.762897 4.316943 -1.950093 2.744051 4.400228 -1.772520 -3.752639 -2.808429 -7.679418 -3.670247 -2.980278 -7.658477 0.000000 -0.000000 0.000000 0.675483 -1.147098 -11.365192 53.478739 -17.334178 -31.023423 -0.000022 -56.949489 -0.000024 0.000002 -0.000000 -0.000000 1.036006 18.519575 -0.695730 -4.250338 12.366637 54.628526 -0.000072 108.035390 0.000058 -0.000000 0.000001 0.000002 -62.314732 4.164887 -0.702404 58.326851 8.216825 0.844676 1.866054 6.589960 4.964117 8.359915 0.000003 -0.000010 -0.000003 -0.000001 -0.000002 20.136455 -15.886385 -1.133308 17.691406 -0.892194 0.271202 5.373501 0.056270 -17.141797 -54.744677 0.488809 -0.846244 0.000001 -0.000000 0.000000 
